<?xml version="1.0" encoding="utf-8"?>
<svg version="1.1" xmlns="http://www.w3.org/2000/svg" xmlns:xlink="http://www.w3.org/1999/xlink" x="0px" y="0px"
     viewBox="0 0 534 268" style="enable-background:new 0 0 534 268;" xml:space="preserve">
<style type="text/css">
    .st0{fill:#FFFFFF;}
    .st1{fill:#FFFFFF;}
    .st2{fill:#3C2417;}
</style>
<g>
    <polygon class="st0" points="176.6,79.1 176.6,79.1 176.6,79.1   "/>
</g>
<polygon class="st1" points="420.1,195 420.1,195 420.1,195 "/>
<g>
    <path class="st2" d="M22.5,248.5c-1.8-2.8-2.8-6.2-2.8-9.9c0-10.3,8.6-18.4,19.2-18.4c7.8,0,12.5,2.9,12.5,2.9l-2.2,5.4
        c0,0-4.7-2.3-9.3-2.3c-8.3,0-13.4,5.3-13.4,12.5c0,7.1,5.5,12.4,12.8,12.4c6,0,10.3-2.4,10.3-2.4l1.9,5.4c0,0-4.6,3-11.8,3
        C32,257,25.9,253.7,22.5,248.5"/>
    <path class="st2" d="M82.6,247.9h-17v8.5h-6.3v-20.3c0-10.9,5.5-15.9,14.7-15.9c9.3,0,14.9,5,14.9,15.9v20.3h-6.3V247.9z
         M65.6,242.9c3.1-0.1,15.3-0.1,17-0.1v-6.7c0-7.6-3.5-10.2-8.5-10.2c-5,0-8.5,2.9-8.5,10.1V242.9z"/>
    <path class="st2" d="M99.4,220.8h11.4c9.5,0,14.2,5.2,14.2,12.6c0,3.7-1.9,8.9-6.6,11.2c2.7,2.3,3.4,6,7.7,6h1.4v5.6
        c0,0-1.3,0.3-3.4,0.3c-8.8,0-8.3-8.1-12.6-10.6c-0.6,0.1-1.2,0.1-1.9,0.1h-3.9v10.3h-6.3V220.8z M105.7,226.6v13.9h4.7
        c5.9,0,7.9-3.1,7.9-7c0-3.9-2-6.9-7.9-6.9H105.7z"/>
    <path class="st2" d="M161.9,257c-4.2,0-8.4-1.4-11.6-3.4l2.2-5.7c2.9,2,6.5,3.2,9.7,3.2c4.2,0,6.1-2.1,6.1-4.3
        c0-2.4-1.3-3.8-7.7-6.2c-6.9-2.5-9.3-5.8-9.3-10.1c0-5.4,4.3-10.3,11.9-10.3c3.8,0,7.5,1.1,9.8,2.4l-2,5.6
        c-2.1-1.2-5.2-2.4-7.9-2.4c-3.7,0-5.5,2.1-5.5,4.5c0,2.3,1.9,3.7,6.9,5.5c7.9,3.1,10.2,6.2,10.2,10.9
        C174.6,253.1,169.8,257,161.9,257z"/>
    <path class="st2" d="M206.5,242.4h-17.3v14h-6.3v-35.5h6.3v16h17.3v-15.9h6.3v35.5h-6.3V242.4z"/>
    <path class="st2" d="M246.7,247.9h-17v8.5h-6.3v-20.3c0-10.9,5.5-15.9,14.7-15.9c9.2,0,14.9,5,14.9,15.9v20.3h-6.3V247.9z
         M229.7,242.9c3.1-0.1,15.3-0.1,17-0.1v-6.7c0-7.6-3.5-10.2-8.5-10.2c-5,0-8.5,2.9-8.5,10.1V242.9z"/>
    <path class="st2" d="M263.5,220.8h11.4c9.5,0,14.2,5.2,14.2,12.6c0,3.7-1.9,8.9-6.6,11.2c2.7,2.3,3.4,6,7.7,6h1.4v5.6
        c0,0-1.3,0.3-3.4,0.3c-8.8,0-8.3-8.1-12.6-10.6c-0.6,0.1-1.2,0.1-1.9,0.1h-3.9v10.3h-6.3V220.8z M269.8,226.6v13.9h4.7
        c5.9,0,7.9-3.1,7.9-7c0-3.9-2-6.9-7.9-6.9H269.8z"/>
    <path class="st2" d="M299.6,220.8h23.1v5.8h-16.8v10h15.3v5.6h-15.3v8.5h16.8v5.8h-23.1V220.8z"/>
    <path class="st2" d="M379.2,254c0,0-4.6,3-11.8,3c-12,0-20-7.9-20-18.4c0-10.3,8.6-18.4,19.2-18.4c7.8,0,12.5,2.9,12.5,2.9
        l-2.2,5.4c0,0-4.7-2.3-9.3-2.3c-8.3,0-13.4,5.3-13.4,12.5c0,7.1,5.5,12.4,12.8,12.4c6,0,10.3-2.4,10.3-2.4L379.2,254z"/>
    <path class="st2" d="M402.8,220.2c11,0,19,7.7,19,18.4c0,10.5-8.1,18.3-19,18.3c-10.9,0-19-7.8-19-18.3
        C383.8,228.3,392.1,220.2,402.8,220.2z M402.8,251.4c6.9,0,12.2-5.5,12.2-12.7c0-7.3-5.1-12.8-12.2-12.8c-7,0-12.2,5.5-12.2,12.8
        C390.6,245.8,396,251.4,402.8,251.4z"/>
    <path class="st2" d="M429.6,246.2v-4.4h12.5v4.4H429.6z"/>
    <path class="st2" d="M469,220.2c11,0,19,7.7,19,18.4c0,10.5-8.1,18.3-19,18.3c-10.9,0-19-7.8-19-18.3
        C450,228.3,458.3,220.2,469,220.2z M469,251.4c6.9,0,12.2-5.5,12.2-12.7c0-7.3-5.1-12.8-12.2-12.8c-7,0-12.2,5.5-12.2,12.8
        C456.8,245.8,462.1,251.4,469,251.4z"/>
    <path class="st2" d="M502.9,246v10.3h-6.3v-35.5h10.9c9.5,0,14.2,5.2,14.2,12.6S517,246,506.3,246H502.9z M502.9,226.6v13.9h4.1
        c5.9,0,7.9-3.1,7.9-7c0-3.9-2-6.9-7.9-6.9H502.9z"/>
</g>
<path class="st2" d="M193.8,24.7c-0.8-0.4-1.9-0.3-2.6,0.4l-12.1,10.7c-0.2,0.2-0.5,0.4-0.7,0.6c-17.5-16.3-41.8-25.9-69.8-25.9
    c-55.6,0-98.9,42.2-98.9,95.7c0,54.8,42.2,95.7,98.9,95.7c32.4,0,60.2-13.5,78-35.2c-0.4-0.5-0.7-0.9-1.1-1.4
    c-7.9-10.8-13.4-23.1-16.4-36.4c-8.5,26.2-31.9,44.2-60.3,44.2c-35.9,0-63.8-29.3-63.8-66.4c0-38,27.2-66.7,63.8-66.7
    c16.7,0,31.2,5.8,42.2,15.6L137.9,63c-0.8,0.5-1.3,1.3-1.2,2.3c0.1,0.9,0.7,1.7,1.6,2l26.5,8.2l1.2,0.4c0,0,0,0,0,0l9,2.8l1.5,0.5
    c0,0,0,0,0,0l0,0l11.8,3.7c0,0,0.1,0,0.1,0c0.6,0.2,1.3,0,1.9-0.3c0.6-0.4,1-1,1-1.8l1.5-22l0-0.2l0.8-11.7l1.3-19.9
    C195.2,26,194.7,25.1,193.8,24.7z"/>
<g>
    <path class="st0" d="M424,10.1c-49.8,0-89.7,33.8-97.5,79.3h31.7h4.2c6.8-29.2,31-49.7,61.9-49.7c37.2,0,63.8,28.7,63.8,66.7
        c0,37.7-27.9,66.4-63.8,66.4c-11.6,0-22.4-3.1-31.7-8.5c0.3-0.3,0.6-0.6,0.9-0.9l11.4-10.9c0.7-0.6,0.9-1.6,0.6-2.5
        c-0.3-0.9-1.1-1.5-2.1-1.5l-27.8-1.2l-10.7-0.5l-6.7-0.3v0l-7.3-0.3c0,0,0,0,0,0c0,0-0.1,0-0.1,0c0,0,0,0,0,0c-0.2,0-0.3,0-0.5,0.1
        c-0.5,0.1-0.9,0.4-1.2,0.7c-0.5,0.5-0.7,1.3-0.5,2l4.1,21.7l0,0.2l5.9,31c0.2,0.9,0.9,1.7,1.8,1.8c0.9,0.2,1.9-0.2,2.4-1l9-13.5
        c0.2-0.3,0.4-0.6,0.6-0.8c14.8,8.4,32.4,13.1,51.6,13.1c56.7,0,99.1-41.1,99.1-95.7C523.1,50.4,481.5,10.1,424,10.1z"/>
    <path class="st0" d="M350.9,32.2c-4.2-2.6-10.4-6.5-12.7-7.7c-3.6-1.8-26.1-14.5-65.7-14.5c-28.3,0-54,11.3-72.2,29.6l-0.5,7.6
        L199,58.9l0,0.2l-1.5,22c-0.2,2.6-1.5,4.9-3.6,6.3c-1.4,0.9-3,1.4-4.7,1.4c-0.7,0-1.3-0.1-2-0.2l0,0l0,0c-0.1,0-0.2,0-0.3-0.1l0,0
        l-0.2,0l-11.6-3.6c0,0,0-0.1,0-0.1c-0.1,0.4-0.2,0.7-0.2,1.1c-0.2,0.7-0.3,1.4-0.4,2.2c-0.1,0.4-0.2,0.9-0.2,1.3
        c-0.1,0.7-0.2,1.3-0.3,2c-0.1,0.5-0.2,1-0.2,1.6c-0.1,0.6-0.2,1.2-0.2,1.9c-0.1,0.6-0.1,1.2-0.2,1.8c-0.1,0.6-0.1,1.1-0.2,1.7
        c-0.1,0.7-0.1,1.5-0.1,2.2c0,0.4-0.1,0.9-0.1,1.3c0,1.2-0.1,2.4-0.1,3.6c0,6.5,0.6,12.9,1.7,19c0.1,0.3,0.1,0.7,0.2,1
        c0.2,0.8,0.3,1.6,0.5,2.4c0.1,0.3,0.2,0.7,0.2,1c0.3,1.1,0.5,2.1,0.8,3.2c0,0.1,0,0.1,0.1,0.2c0.3,1,0.6,2,0.9,3
        c0.1,0.3,0.2,0.7,0.3,1c0.2,0.7,0.5,1.5,0.8,2.2c0.1,0.3,0.2,0.7,0.4,1c0.3,0.9,0.7,1.9,1.1,2.8c0.1,0.2,0.2,0.4,0.2,0.6
        c0.4,0.9,0.8,1.8,1.1,2.6c0.2,0.4,0.3,0.7,0.5,1.1c0.3,0.7,0.6,1.3,0.9,2c0.2,0.4,0.4,0.7,0.5,1.1c0.4,0.8,0.8,1.6,1.3,2.4
        c0.2,0.3,0.3,0.6,0.5,0.9c0.4,0.8,0.9,1.5,1.3,2.3c0.2,0.4,0.4,0.7,0.7,1.1c0.4,0.6,0.7,1.1,1.1,1.7c0.2,0.4,0.5,0.7,0.7,1.1
        c0.5,0.7,1,1.4,1.4,2c0.1,0.2,0.2,0.3,0.4,0.5c0.8,1.1,1.7,2.2,2.6,3.3c0.1,0.1,0.2,0.3,0.4,0.4c0.9,1.1,1.8,2.1,2.7,3.2
        c0.1,0.1,0.1,0.1,0.2,0.2c0.9,1,1.9,2,2.9,3c0.1,0.1,0.1,0.1,0.2,0.2c1,1,2,2,3.1,2.9c18.2,16.5,43.8,26.3,74.5,26.3
        c40.8,0,67.5-18.1,71.1-20.7c0.1-0.1,0.2-0.1,0.3-0.2l-1.6-8.6l0-0.2l-4.1-21.7c-0.5-2.5,0.2-5.1,1.9-7c1.5-1.8,3.8-2.8,6.2-2.9
        l0,0h0c0.1,0,0.1,0,0.2,0l0,0l0.2,0l7,0.3l4-45.1H262l13,14.7l-13,14.6h61.6l-3,32.8c0,0-0.6,4.6-3.6,5.9c-8.2,3.5-25,7.4-42.1,7.4
        c-38.4,0-66.9-27.4-66.9-64.5c0-37.9,26.6-65.3,70-65.3c24.5,0,46.7,11.3,48.4,12.1c0.9,0.4,3.3,1.9,5.6,3.3
        C337.1,47.4,343.4,39.3,350.9,32.2z"/>
</g>
</svg>
